<svg width="322" height="331" viewBox="0 0 322 331" fill="none" xmlns="http://www.w3.org/2000/svg">
<ellipse cx="161" cy="165.5" rx="161" ry="165.5" fill="black"/>
<path d="M161 193H63.7322C13.8251 168.781 18.4084 105.904 63.7322 91H161" stroke="white" stroke-width="20"/>
<path d="M217.255 57L147.873 126.383C131.667 168.409 186.587 218.125 226.873 205.383L296.255 136" stroke="white" stroke-width="20"/>
<path d="M85.5455 247H82.7273C82.5606 246.189 82.2689 245.477 81.8523 244.864C81.4432 244.25 80.9432 243.735 80.3523 243.318C79.7689 242.894 79.1212 242.576 78.4091 242.364C77.697 242.152 76.9545 242.045 76.1818 242.045C74.7727 242.045 73.4962 242.402 72.3523 243.114C71.2159 243.826 70.3106 244.875 69.6364 246.261C68.9697 247.648 68.6364 249.348 68.6364 251.364C68.6364 253.379 68.9697 255.08 69.6364 256.466C70.3106 257.852 71.2159 258.902 72.3523 259.614C73.4962 260.326 74.7727 260.682 76.1818 260.682C76.9545 260.682 77.697 260.576 78.4091 260.364C79.1212 260.152 79.7689 259.837 80.3523 259.42C80.9432 258.996 81.4432 258.477 81.8523 257.864C82.2689 257.242 82.5606 256.53 82.7273 255.727H85.5455C85.3333 256.917 84.947 257.981 84.3864 258.92C83.8258 259.86 83.1288 260.659 82.2955 261.318C81.4621 261.97 80.5265 262.466 79.4886 262.807C78.4583 263.148 77.3561 263.318 76.1818 263.318C74.197 263.318 72.4318 262.833 70.8864 261.864C69.3409 260.894 68.125 259.515 67.2386 257.727C66.3523 255.939 65.9091 253.818 65.9091 251.364C65.9091 248.909 66.3523 246.788 67.2386 245C68.125 243.212 69.3409 241.833 70.8864 240.864C72.4318 239.894 74.197 239.409 76.1818 239.409C77.3561 239.409 78.4583 239.58 79.4886 239.92C80.5265 240.261 81.4621 240.761 82.2955 241.42C83.1288 242.072 83.8258 242.867 84.3864 243.807C84.947 244.739 85.3333 245.803 85.5455 247ZM90.0994 263V239.727H97.9631C99.7813 239.727 101.274 240.038 102.44 240.659C103.607 241.273 104.471 242.117 105.031 243.193C105.592 244.269 105.872 245.492 105.872 246.864C105.872 248.235 105.592 249.451 105.031 250.511C104.471 251.572 103.611 252.405 102.452 253.011C101.293 253.61 99.8116 253.909 98.0085 253.909H91.6449V251.364H97.9176C99.16 251.364 100.16 251.182 100.918 250.818C101.683 250.455 102.236 249.939 102.577 249.273C102.925 248.598 103.099 247.795 103.099 246.864C103.099 245.932 102.925 245.117 102.577 244.42C102.228 243.723 101.671 243.186 100.906 242.807C100.141 242.42 99.1297 242.227 97.8722 242.227H92.9176V263H90.0994ZM101.054 252.545L106.781 263H103.509L97.8722 252.545H101.054ZM130.205 251.364C130.205 253.818 129.761 255.939 128.875 257.727C127.989 259.515 126.773 260.894 125.227 261.864C123.682 262.833 121.917 263.318 119.932 263.318C117.947 263.318 116.182 262.833 114.636 261.864C113.091 260.894 111.875 259.515 110.989 257.727C110.102 255.939 109.659 253.818 109.659 251.364C109.659 248.909 110.102 246.788 110.989 245C111.875 243.212 113.091 241.833 114.636 240.864C116.182 239.894 117.947 239.409 119.932 239.409C121.917 239.409 123.682 239.894 125.227 240.864C126.773 241.833 127.989 243.212 128.875 245C129.761 246.788 130.205 248.909 130.205 251.364ZM127.477 251.364C127.477 249.348 127.14 247.648 126.466 246.261C125.799 244.875 124.894 243.826 123.75 243.114C122.614 242.402 121.341 242.045 119.932 242.045C118.523 242.045 117.246 242.402 116.102 243.114C114.966 243.826 114.061 244.875 113.386 246.261C112.72 247.648 112.386 249.348 112.386 251.364C112.386 253.379 112.72 255.08 113.386 256.466C114.061 257.852 114.966 258.902 116.102 259.614C117.246 260.326 118.523 260.682 119.932 260.682C121.341 260.682 122.614 260.326 123.75 259.614C124.894 258.902 125.799 257.852 126.466 256.466C127.14 255.08 127.477 253.379 127.477 251.364ZM139.17 263L132.807 239.727H135.67L140.534 258.682H140.761L145.716 239.727H148.898L153.852 258.682H154.08L158.943 239.727H161.807L155.443 263H152.534L147.398 244.455H147.216L142.08 263H139.17ZM172.5 263H165.318V239.727H172.818C175.076 239.727 177.008 240.193 178.614 241.125C180.22 242.049 181.451 243.379 182.307 245.114C183.163 246.841 183.591 248.909 183.591 251.318C183.591 253.742 183.159 255.83 182.295 257.58C181.432 259.322 180.174 260.663 178.523 261.602C176.871 262.534 174.864 263 172.5 263ZM168.136 260.5H172.318C174.242 260.5 175.837 260.129 177.102 259.386C178.367 258.644 179.311 257.587 179.932 256.216C180.553 254.845 180.864 253.212 180.864 251.318C180.864 249.439 180.557 247.822 179.943 246.466C179.33 245.102 178.413 244.057 177.193 243.33C175.973 242.595 174.455 242.227 172.636 242.227H168.136V260.5ZM203.591 239.727H206.409V255.136C206.409 256.727 206.034 258.148 205.284 259.398C204.542 260.64 203.492 261.621 202.136 262.341C200.78 263.053 199.189 263.409 197.364 263.409C195.538 263.409 193.947 263.053 192.591 262.341C191.235 261.621 190.182 260.64 189.432 259.398C188.689 258.148 188.318 256.727 188.318 255.136V239.727H191.136V254.909C191.136 256.045 191.386 257.057 191.886 257.943C192.386 258.822 193.098 259.515 194.023 260.023C194.955 260.523 196.068 260.773 197.364 260.773C198.659 260.773 199.773 260.523 200.705 260.023C201.636 259.515 202.348 258.822 202.841 257.943C203.341 257.057 203.591 256.045 203.591 254.909V239.727ZM212.037 263V239.727H219.901C221.726 239.727 223.219 240.057 224.378 240.716C225.545 241.367 226.408 242.25 226.969 243.364C227.529 244.477 227.81 245.72 227.81 247.091C227.81 248.462 227.529 249.708 226.969 250.83C226.416 251.951 225.56 252.845 224.401 253.511C223.241 254.17 221.757 254.5 219.946 254.5H214.31V252H219.855C221.105 252 222.109 251.784 222.866 251.352C223.624 250.92 224.173 250.337 224.514 249.602C224.863 248.86 225.037 248.023 225.037 247.091C225.037 246.159 224.863 245.326 224.514 244.591C224.173 243.856 223.62 243.28 222.855 242.864C222.09 242.439 221.075 242.227 219.81 242.227H214.855V263H212.037ZM245.077 245.545C244.94 244.394 244.387 243.5 243.418 242.864C242.448 242.227 241.259 241.909 239.849 241.909C238.819 241.909 237.918 242.076 237.145 242.409C236.38 242.742 235.781 243.201 235.349 243.784C234.925 244.367 234.713 245.03 234.713 245.773C234.713 246.394 234.861 246.928 235.156 247.375C235.459 247.814 235.846 248.182 236.315 248.477C236.785 248.765 237.277 249.004 237.793 249.193C238.308 249.375 238.781 249.523 239.213 249.636L241.577 250.273C242.183 250.432 242.857 250.652 243.599 250.932C244.349 251.212 245.065 251.595 245.747 252.08C246.437 252.557 247.005 253.17 247.452 253.92C247.899 254.67 248.122 255.591 248.122 256.682C248.122 257.939 247.793 259.076 247.134 260.091C246.482 261.106 245.527 261.913 244.27 262.511C243.02 263.11 241.501 263.409 239.713 263.409C238.046 263.409 236.603 263.14 235.384 262.602C234.171 262.064 233.217 261.314 232.52 260.352C231.83 259.39 231.44 258.273 231.349 257H234.259C234.334 257.879 234.63 258.606 235.145 259.182C235.668 259.75 236.327 260.174 237.122 260.455C237.925 260.727 238.789 260.864 239.713 260.864C240.789 260.864 241.755 260.689 242.611 260.341C243.467 259.985 244.145 259.492 244.645 258.864C245.145 258.227 245.395 257.485 245.395 256.636C245.395 255.864 245.179 255.235 244.747 254.75C244.315 254.265 243.747 253.871 243.043 253.568C242.338 253.265 241.577 253 240.759 252.773L237.895 251.955C236.077 251.432 234.637 250.686 233.577 249.716C232.516 248.746 231.986 247.477 231.986 245.909C231.986 244.606 232.338 243.47 233.043 242.5C233.755 241.523 234.709 240.765 235.906 240.227C237.111 239.682 238.455 239.409 239.94 239.409C241.44 239.409 242.774 239.678 243.94 240.216C245.107 240.746 246.031 241.473 246.713 242.398C247.402 243.322 247.766 244.371 247.804 245.545H245.077ZM265.483 245.545C265.347 244.394 264.794 243.5 263.824 242.864C262.854 242.227 261.665 241.909 260.256 241.909C259.225 241.909 258.324 242.076 257.551 242.409C256.786 242.742 256.188 243.201 255.756 243.784C255.331 244.367 255.119 245.03 255.119 245.773C255.119 246.394 255.267 246.928 255.562 247.375C255.866 247.814 256.252 248.182 256.722 248.477C257.191 248.765 257.684 249.004 258.199 249.193C258.714 249.375 259.188 249.523 259.619 249.636L261.983 250.273C262.589 250.432 263.263 250.652 264.006 250.932C264.756 251.212 265.472 251.595 266.153 252.08C266.843 252.557 267.411 253.17 267.858 253.92C268.305 254.67 268.528 255.591 268.528 256.682C268.528 257.939 268.199 259.076 267.54 260.091C266.888 261.106 265.934 261.913 264.676 262.511C263.426 263.11 261.907 263.409 260.119 263.409C258.453 263.409 257.009 263.14 255.79 262.602C254.578 262.064 253.623 261.314 252.926 260.352C252.237 259.39 251.847 258.273 251.756 257H254.665C254.741 257.879 255.036 258.606 255.551 259.182C256.074 259.75 256.733 260.174 257.528 260.455C258.331 260.727 259.195 260.864 260.119 260.864C261.195 260.864 262.161 260.689 263.017 260.341C263.873 259.985 264.551 259.492 265.051 258.864C265.551 258.227 265.801 257.485 265.801 256.636C265.801 255.864 265.585 255.235 265.153 254.75C264.722 254.265 264.153 253.871 263.449 253.568C262.744 253.265 261.983 253 261.165 252.773L258.301 251.955C256.483 251.432 255.044 250.686 253.983 249.716C252.922 248.746 252.392 247.477 252.392 245.909C252.392 244.606 252.744 243.47 253.449 242.5C254.161 241.523 255.116 240.765 256.312 240.227C257.517 239.682 258.862 239.409 260.347 239.409C261.847 239.409 263.18 239.678 264.347 240.216C265.513 240.746 266.438 241.473 267.119 242.398C267.809 243.322 268.172 244.371 268.21 245.545H265.483Z" fill="white"/>
<path d="M85.5455 247V248.5H87.3347L87.0224 246.738L85.5455 247ZM82.7273 247L81.258 247.302L81.5043 248.5H82.7273V247ZM81.8523 244.864L80.6042 245.696L80.6113 245.706L81.8523 244.864ZM80.3523 243.318L79.47 244.531L79.4789 244.538L79.4879 244.544L80.3523 243.318ZM78.4091 242.364L77.9809 243.801L78.4091 242.364ZM72.3523 243.114L71.5595 241.84L71.5558 241.843L72.3523 243.114ZM69.6364 246.261L68.2874 245.605L68.2845 245.611L69.6364 246.261ZM69.6364 256.466L68.2845 257.116L68.2874 257.122L69.6364 256.466ZM72.3523 259.614L71.5557 260.885L71.5595 260.887L72.3523 259.614ZM78.4091 260.364L77.9809 258.926L78.4091 260.364ZM80.3523 259.42L81.2241 260.641L81.2271 260.639L80.3523 259.42ZM81.8523 257.864L80.6065 257.028L80.6042 257.032L81.8523 257.864ZM82.7273 255.727V254.227H81.5066L81.2586 255.422L82.7273 255.727ZM85.5455 255.727L87.0222 255.991L87.3366 254.227H85.5455V255.727ZM84.3864 258.92L83.0983 258.152V258.152L84.3864 258.92ZM82.2955 261.318L83.2194 262.5L83.226 262.495L82.2955 261.318ZM79.4886 262.807L79.0205 261.382L79.0174 261.383L79.4886 262.807ZM70.8864 261.864L70.0891 263.134L70.8864 261.864ZM67.2386 257.727L68.5825 257.061L67.2386 257.727ZM67.2386 245L65.8947 244.334L67.2386 245ZM79.4886 239.92L79.0174 241.345L79.0205 241.346L79.4886 239.92ZM82.2955 241.42L81.3649 242.597L81.3716 242.602L82.2955 241.42ZM84.3864 243.807L83.0983 244.576L83.101 244.58L84.3864 243.807ZM85.5455 245.5H82.7273V248.5H85.5455V245.5ZM84.1965 246.698C83.9947 245.716 83.633 244.816 83.0932 244.021L80.6113 245.706C80.9049 246.139 81.1265 246.663 81.258 247.302L84.1965 246.698ZM83.1003 244.032C82.5908 243.267 81.9617 242.618 81.2167 242.092L79.4879 244.544C79.9247 244.852 80.2955 245.233 80.6042 245.696L83.1003 244.032ZM81.2345 242.105C80.5095 241.578 79.7074 241.185 78.8373 240.926L77.9809 243.801C78.535 243.966 79.0284 244.21 79.47 244.531L81.2345 242.105ZM78.8373 240.926C77.9807 240.671 77.0937 240.545 76.1818 240.545V243.545C76.8154 243.545 77.4132 243.632 77.9809 243.801L78.8373 240.926ZM76.1818 240.545C74.5059 240.545 72.9525 240.973 71.5595 241.84L73.145 244.387C74.0399 243.83 75.0395 243.545 76.1818 243.545V240.545ZM71.5558 241.843C70.1473 242.725 69.0658 244.005 68.2874 245.605L70.9853 246.917C71.5554 245.745 72.2845 244.926 73.1488 244.385L71.5558 241.843ZM68.2845 245.611C67.495 247.253 67.1364 249.19 67.1364 251.364H70.1364C70.1364 249.507 70.4444 248.042 70.9882 246.911L68.2845 245.611ZM67.1364 251.364C67.1364 253.537 67.495 255.474 68.2845 257.116L70.9882 255.816C70.4444 254.685 70.1364 253.221 70.1364 251.364H67.1364ZM68.2874 257.122C69.0658 258.722 70.1473 260.002 71.5558 260.885L73.1488 258.343C72.2845 257.801 71.5554 256.982 70.9853 255.81L68.2874 257.122ZM71.5595 260.887C72.9525 261.754 74.5059 262.182 76.1818 262.182V259.182C75.0395 259.182 74.0399 258.897 73.145 258.34L71.5595 260.887ZM76.1818 262.182C77.0937 262.182 77.9807 262.056 78.8373 261.801L77.9809 258.926C77.4132 259.095 76.8154 259.182 76.1818 259.182V262.182ZM78.8373 261.801C79.7024 261.544 80.501 261.158 81.2241 260.641L79.4804 258.2C79.0369 258.517 78.54 258.76 77.9809 258.926L78.8373 261.801ZM81.2271 260.639C81.9667 260.108 82.5925 259.457 83.1003 258.696L80.6042 257.032C80.2938 257.497 79.9196 257.885 79.4775 258.202L81.2271 260.639ZM83.098 258.699C83.6325 257.902 83.9938 257.006 84.196 256.032L81.2586 255.422C81.1275 256.054 80.9053 256.583 80.6065 257.028L83.098 258.699ZM82.7273 257.227H85.5455V254.227H82.7273V257.227ZM84.0688 255.464C83.8851 256.493 83.5568 257.383 83.0983 258.152L85.6744 259.689C86.3371 258.579 86.7815 257.34 87.0222 255.991L84.0688 255.464ZM83.0983 258.152C82.6283 258.939 82.0511 259.599 81.365 260.142L83.226 262.495C84.2065 261.719 85.0232 260.78 85.6744 259.689L83.0983 258.152ZM81.3716 260.136C80.6794 260.678 79.899 261.093 79.0205 261.382L79.9567 264.232C81.154 263.839 82.2448 263.262 83.2193 262.5L81.3716 260.136ZM79.0174 261.383C78.1511 261.669 77.2091 261.818 76.1818 261.818V264.818C77.5031 264.818 78.7656 264.626 79.9598 264.231L79.0174 261.383ZM76.1818 261.818C74.4533 261.818 72.9693 261.4 71.6836 260.593L70.0891 263.134C71.8944 264.267 73.9407 264.818 76.1818 264.818V261.818ZM71.6836 260.593C70.3944 259.784 69.3579 258.625 68.5825 257.061L65.8947 258.394C66.8921 260.405 68.2874 262.004 70.0891 263.134L71.6836 260.593ZM68.5825 257.061C67.8198 255.522 67.4091 253.639 67.4091 251.364H64.4091C64.4091 253.997 64.8848 256.356 65.8947 258.394L68.5825 257.061ZM67.4091 251.364C67.4091 249.088 67.8198 247.205 68.5825 245.666L65.8947 244.334C64.8848 246.371 64.4091 248.73 64.4091 251.364H67.4091ZM68.5825 245.666C69.3579 244.102 70.3944 242.943 71.6836 242.134L70.0891 239.593C68.2874 240.724 66.8921 242.322 65.8947 244.334L68.5825 245.666ZM71.6836 242.134C72.9693 241.328 74.4533 240.909 76.1818 240.909V237.909C73.9407 237.909 71.8944 238.46 70.0891 239.593L71.6836 242.134ZM76.1818 240.909C77.2091 240.909 78.1511 241.058 79.0174 241.345L79.9598 238.496C78.7656 238.101 77.5031 237.909 76.1818 237.909V240.909ZM79.0205 241.346C79.8957 241.633 80.6739 242.05 81.365 242.597L83.226 240.244C82.2504 239.472 81.1574 238.89 79.9567 238.495L79.0205 241.346ZM81.3716 242.602C82.0541 243.136 82.6293 243.79 83.0983 244.576L85.6744 243.038C85.0223 241.945 84.2035 241.008 83.2193 240.239L81.3716 242.602ZM83.101 244.58C83.5565 245.337 83.8846 246.224 84.0685 247.262L87.0224 246.738C86.782 245.382 86.3375 244.14 85.6717 243.034L83.101 244.58ZM90.0994 263H88.5994V264.5H90.0994V263ZM90.0994 239.727V238.227H88.5994V239.727H90.0994ZM102.44 240.659L101.735 241.983L101.742 241.987L102.44 240.659ZM105.031 243.193L103.701 243.886L105.031 243.193ZM105.031 250.511L103.705 249.81L105.031 250.511ZM102.452 253.011L103.14 254.344L103.147 254.341L102.452 253.011ZM91.6449 253.909H90.1449V255.409H91.6449V253.909ZM91.6449 251.364V249.864H90.1449V251.364H91.6449ZM100.918 250.818L100.274 249.463L100.269 249.466L100.918 250.818ZM102.577 249.273L101.244 248.584L101.241 248.59L102.577 249.273ZM100.906 242.807L100.23 244.146L100.241 244.151L100.906 242.807ZM92.9176 242.227V240.727H91.4176V242.227H92.9176ZM92.9176 263V264.5H94.4176V263H92.9176ZM101.054 252.545L102.37 251.825L101.943 251.045H101.054V252.545ZM106.781 263V264.5H109.313L108.097 262.279L106.781 263ZM103.509 263L102.188 263.712L102.613 264.5H103.509V263ZM97.8722 252.545V251.045H95.3594L96.5518 253.257L97.8722 252.545ZM91.5994 263V239.727H88.5994V263H91.5994ZM90.0994 241.227H97.9631V238.227H90.0994V241.227ZM97.9631 241.227C99.6231 241.227 100.852 241.513 101.735 241.983L103.145 239.335C101.696 238.563 99.9394 238.227 97.9631 238.227V241.227ZM101.742 241.987C102.663 242.471 103.294 243.105 103.701 243.886L106.361 242.5C105.647 241.13 104.551 240.074 103.139 239.332L101.742 241.987ZM103.701 243.886C104.136 244.722 104.372 245.702 104.372 246.864H107.372C107.372 245.283 107.047 243.816 106.361 242.5L103.701 243.886ZM104.372 246.864C104.372 248.026 104.136 248.995 103.705 249.81L106.357 251.212C107.048 249.907 107.372 248.444 107.372 246.864H104.372ZM103.705 249.81C103.299 250.578 102.672 251.203 101.757 251.682L103.147 254.341C104.549 253.607 105.642 252.566 106.357 251.212L103.705 249.81ZM101.764 251.679C100.883 252.133 99.6587 252.409 98.0085 252.409V255.409C99.9644 255.409 101.703 255.086 103.14 254.344L101.764 251.679ZM98.0085 252.409H91.6449V255.409H98.0085V252.409ZM93.1449 253.909V251.364H90.1449V253.909H93.1449ZM91.6449 252.864H97.9176V249.864H91.6449V252.864ZM97.9176 252.864C99.286 252.864 100.533 252.667 101.567 252.17L100.269 249.466C99.7868 249.697 99.0341 249.864 97.9176 249.864V252.864ZM101.561 252.173C102.584 251.687 103.401 250.954 103.912 249.956L101.241 248.59C101.07 248.924 100.782 249.222 100.274 249.463L101.561 252.173ZM103.909 249.961C104.39 249.031 104.599 247.981 104.599 246.864H101.599C101.599 247.61 101.46 248.166 101.244 248.584L103.909 249.961ZM104.599 246.864C104.599 245.744 104.389 244.692 103.918 243.75L101.235 245.091C101.461 245.543 101.599 246.12 101.599 246.864H104.599ZM103.918 243.75C103.41 242.732 102.6 241.972 101.572 241.463L100.241 244.151C100.743 244.4 101.047 244.715 101.235 245.091L103.918 243.75ZM101.582 241.468C100.533 240.938 99.2632 240.727 97.8722 240.727V243.727C98.9962 243.727 99.7495 243.903 100.23 244.146L101.582 241.468ZM97.8722 240.727H92.9176V243.727H97.8722V240.727ZM91.4176 242.227V263H94.4176V242.227H91.4176ZM92.9176 261.5H90.0994V264.5H92.9176V261.5ZM99.7384 253.266L105.466 263.721L108.097 262.279L102.37 251.825L99.7384 253.266ZM106.781 261.5H103.509V264.5H106.781V261.5ZM104.829 262.288L99.1925 251.834L96.5518 253.257L102.188 263.712L104.829 262.288ZM97.8722 254.045H101.054V251.045H97.8722V254.045ZM128.875 257.727L127.531 257.061L128.875 257.727ZM125.227 261.864L126.025 263.134L125.227 261.864ZM114.636 261.864L113.839 263.134L114.636 261.864ZM110.989 257.727L112.333 257.061L110.989 257.727ZM110.989 245L109.645 244.334L110.989 245ZM125.227 240.864L126.025 239.593L125.227 240.864ZM128.875 245L127.531 245.666L128.875 245ZM126.466 246.261L125.114 246.911L125.117 246.917L126.466 246.261ZM123.75 243.114L122.953 244.385L122.957 244.387L123.75 243.114ZM116.102 243.114L115.31 241.84L115.306 241.843L116.102 243.114ZM113.386 246.261L112.037 245.605L112.035 245.611L113.386 246.261ZM113.386 256.466L112.035 257.116L112.037 257.122L113.386 256.466ZM116.102 259.614L115.306 260.885L115.31 260.887L116.102 259.614ZM123.75 259.614L122.957 258.34L122.953 258.343L123.75 259.614ZM126.466 256.466L125.117 255.81L125.114 255.816L126.466 256.466ZM128.705 251.364C128.705 253.639 128.294 255.522 127.531 257.061L130.219 258.394C131.229 256.356 131.705 253.997 131.705 251.364H128.705ZM127.531 257.061C126.756 258.625 125.719 259.784 124.43 260.593L126.025 263.134C127.826 262.004 129.222 260.405 130.219 258.394L127.531 257.061ZM124.43 260.593C123.144 261.4 121.66 261.818 119.932 261.818V264.818C122.173 264.818 124.219 264.267 126.025 263.134L124.43 260.593ZM119.932 261.818C118.203 261.818 116.719 261.4 115.434 260.593L113.839 263.134C115.644 264.267 117.691 264.818 119.932 264.818V261.818ZM115.434 260.593C114.144 259.784 113.108 258.625 112.333 257.061L109.645 258.394C110.642 260.405 112.037 262.004 113.839 263.134L115.434 260.593ZM112.333 257.061C111.57 255.522 111.159 253.639 111.159 251.364H108.159C108.159 253.997 108.635 256.356 109.645 258.394L112.333 257.061ZM111.159 251.364C111.159 249.088 111.57 247.205 112.333 245.666L109.645 244.334C108.635 246.371 108.159 248.73 108.159 251.364H111.159ZM112.333 245.666C113.108 244.102 114.144 242.943 115.434 242.134L113.839 239.593C112.037 240.724 110.642 242.322 109.645 244.334L112.333 245.666ZM115.434 242.134C116.719 241.328 118.203 240.909 119.932 240.909V237.909C117.691 237.909 115.644 238.46 113.839 239.593L115.434 242.134ZM119.932 240.909C121.66 240.909 123.144 241.328 124.43 242.134L126.025 239.593C124.219 238.46 122.173 237.909 119.932 237.909V240.909ZM124.43 242.134C125.719 242.943 126.756 244.102 127.531 245.666L130.219 244.334C129.222 242.322 127.826 240.724 126.025 239.593L124.43 242.134ZM127.531 245.666C128.294 247.205 128.705 249.088 128.705 251.364H131.705C131.705 248.73 131.229 246.371 130.219 244.334L127.531 245.666ZM128.977 251.364C128.977 249.188 128.614 247.249 127.815 245.605L125.117 246.917C125.666 248.047 125.977 249.509 125.977 251.364H128.977ZM127.818 245.611C127.046 244.006 125.961 242.723 124.543 241.84L122.957 244.387C123.827 244.928 124.553 245.744 125.114 246.911L127.818 245.611ZM124.547 241.843C123.159 240.973 121.608 240.545 119.932 240.545V243.545C121.074 243.545 122.068 243.83 122.953 244.385L124.547 241.843ZM119.932 240.545C118.256 240.545 116.703 240.973 115.31 241.84L116.895 244.387C117.79 243.83 118.79 243.545 119.932 243.545V240.545ZM115.306 241.843C113.897 242.725 112.816 244.005 112.037 245.605L114.735 246.917C115.305 245.745 116.034 244.926 116.899 244.385L115.306 241.843ZM112.035 245.611C111.245 247.253 110.886 249.19 110.886 251.364H113.886C113.886 249.507 114.194 248.042 114.738 246.911L112.035 245.611ZM110.886 251.364C110.886 253.537 111.245 255.474 112.035 257.116L114.738 255.816C114.194 254.685 113.886 253.221 113.886 251.364H110.886ZM112.037 257.122C112.816 258.722 113.897 260.002 115.306 260.885L116.899 258.343C116.034 257.801 115.305 256.982 114.735 255.81L112.037 257.122ZM115.31 260.887C116.703 261.754 118.256 262.182 119.932 262.182V259.182C118.79 259.182 117.79 258.897 116.895 258.34L115.31 260.887ZM119.932 262.182C121.608 262.182 123.159 261.754 124.547 260.885L122.953 258.343C122.068 258.897 121.074 259.182 119.932 259.182V262.182ZM124.543 260.887C125.961 260.004 127.046 258.722 127.818 257.116L125.114 255.816C124.553 256.983 123.827 257.799 122.957 258.34L124.543 260.887ZM127.815 257.122C128.614 255.478 128.977 253.539 128.977 251.364H125.977C125.977 253.219 125.666 254.681 125.117 255.81L127.815 257.122ZM139.17 263L137.724 263.396L138.026 264.5H139.17V263ZM132.807 239.727V238.227H130.842L131.36 240.123L132.807 239.727ZM135.67 239.727L137.123 239.354L136.834 238.227H135.67V239.727ZM140.534 258.682L139.081 259.055L139.37 260.182H140.534V258.682ZM140.761 258.682V260.182H141.92L142.213 259.061L140.761 258.682ZM145.716 239.727V238.227H144.558L144.265 239.348L145.716 239.727ZM148.898 239.727L150.349 239.348L150.056 238.227H148.898V239.727ZM153.852 258.682L152.401 259.061L152.694 260.182H153.852V258.682ZM154.08 258.682V260.182H155.243L155.532 259.055L154.08 258.682ZM158.943 239.727V238.227H157.779L157.49 239.354L158.943 239.727ZM161.807 239.727L163.254 240.123L163.772 238.227H161.807V239.727ZM155.443 263V264.5H156.588L156.89 263.396L155.443 263ZM152.534 263L151.089 263.4L151.393 264.5H152.534V263ZM147.398 244.455L148.843 244.054L148.539 242.955H147.398V244.455ZM147.216 244.455V242.955H146.075L145.77 244.054L147.216 244.455ZM142.08 263V264.5H143.221L143.525 263.4L142.08 263ZM140.617 262.604L134.254 239.332L131.36 240.123L137.724 263.396L140.617 262.604ZM132.807 241.227H135.67V238.227H132.807V241.227ZM134.218 240.1L139.081 259.055L141.987 258.309L137.123 239.354L134.218 240.1ZM140.534 260.182H140.761V257.182H140.534V260.182ZM142.213 259.061L147.167 240.107L144.265 239.348L139.31 258.302L142.213 259.061ZM145.716 241.227H148.898V238.227H145.716V241.227ZM147.446 240.107L152.401 259.061L155.304 258.302L150.349 239.348L147.446 240.107ZM153.852 260.182H154.08V257.182H153.852V260.182ZM155.532 259.055L160.396 240.1L157.49 239.354L152.627 258.309L155.532 259.055ZM158.943 241.227H161.807V238.227H158.943V241.227ZM160.36 239.332L153.996 262.604L156.89 263.396L163.254 240.123L160.36 239.332ZM155.443 261.5H152.534V264.5H155.443V261.5ZM153.98 262.6L148.843 244.054L145.952 244.855L151.089 263.4L153.98 262.6ZM147.398 242.955H147.216V245.955H147.398V242.955ZM145.77 244.054L140.634 262.6L143.525 263.4L148.661 244.855L145.77 244.054ZM142.08 261.5H139.17V264.5H142.08V261.5ZM165.318 263H163.818V264.5H165.318V263ZM165.318 239.727V238.227H163.818V239.727H165.318ZM178.614 241.125L177.861 242.422L177.865 242.425L178.614 241.125ZM182.307 245.114L180.962 245.777L180.963 245.78L182.307 245.114ZM182.295 257.58L183.639 258.246L183.641 258.243L182.295 257.58ZM178.523 261.602L179.26 262.909L179.264 262.906L178.523 261.602ZM168.136 260.5H166.636V262H168.136V260.5ZM177.102 259.386L176.343 258.093L177.102 259.386ZM179.943 246.466L178.575 247.081L178.577 247.084L179.943 246.466ZM177.193 243.33L176.419 244.614L176.425 244.618L177.193 243.33ZM168.136 242.227V240.727H166.636V242.227H168.136ZM172.5 261.5H165.318V264.5H172.5V261.5ZM166.818 263V239.727H163.818V263H166.818ZM165.318 241.227H172.818V238.227H165.318V241.227ZM172.818 241.227C174.868 241.227 176.528 241.649 177.861 242.422L179.366 239.828C177.487 238.737 175.283 238.227 172.818 238.227V241.227ZM177.865 242.425C179.202 243.194 180.231 244.297 180.962 245.777L183.652 244.45C182.67 242.461 181.237 240.904 179.362 239.825L177.865 242.425ZM180.963 245.78C181.694 247.255 182.091 249.084 182.091 251.318H185.091C185.091 248.734 184.632 246.427 183.651 244.448L180.963 245.78ZM182.091 251.318C182.091 253.567 181.69 255.416 180.95 256.916L183.641 258.243C184.628 256.243 185.091 253.918 185.091 251.318H182.091ZM180.951 256.913C180.217 258.395 179.166 259.51 177.781 260.298L179.264 262.906C181.182 261.815 182.646 260.249 183.639 258.246L180.951 256.913ZM177.786 260.296C176.408 261.073 174.668 261.5 172.5 261.5V264.5C175.059 264.5 177.334 263.995 179.26 262.909L177.786 260.296ZM168.136 262H172.318V259H168.136V262ZM172.318 262C174.428 262 176.305 261.593 177.861 260.68L176.343 258.093C175.369 258.664 174.057 259 172.318 259V262ZM177.861 260.68C179.401 259.776 180.553 258.48 181.298 256.835L178.565 255.597C178.069 256.694 177.334 257.511 176.343 258.093L177.861 260.68ZM181.298 256.835C182.027 255.226 182.364 253.372 182.364 251.318H179.364C179.364 253.052 179.079 254.464 178.565 255.597L181.298 256.835ZM182.364 251.318C182.364 249.28 182.031 247.442 181.31 245.848L178.577 247.084C179.082 248.202 179.364 249.599 179.364 251.318H182.364ZM181.311 245.85C180.578 244.222 179.46 242.935 177.961 242.041L176.425 244.618C177.366 245.179 178.081 245.983 178.575 247.081L181.311 245.85ZM177.967 242.045C176.457 241.135 174.653 240.727 172.636 240.727V243.727C174.256 243.727 175.489 244.054 176.419 244.614L177.967 242.045ZM172.636 240.727H168.136V243.727H172.636V240.727ZM166.636 242.227V260.5H169.636V242.227H166.636ZM203.591 239.727V238.227H202.091V239.727H203.591ZM206.409 239.727H207.909V238.227H206.409V239.727ZM205.284 259.398L203.998 258.626L203.996 258.628L205.284 259.398ZM202.136 262.341L202.834 263.669L202.84 263.666L202.136 262.341ZM192.591 262.341L191.888 263.666L191.894 263.669L192.591 262.341ZM189.432 259.398L188.142 260.164L188.148 260.173L189.432 259.398ZM188.318 239.727V238.227H186.818V239.727H188.318ZM191.136 239.727H192.636V238.227H191.136V239.727ZM191.886 257.943L190.58 258.68L190.583 258.685L191.886 257.943ZM194.023 260.023L193.301 261.338L193.307 261.341L193.314 261.344L194.023 260.023ZM200.705 260.023L201.414 261.344L201.422 261.34L200.705 260.023ZM202.841 257.943L201.534 257.206L201.532 257.21L202.841 257.943ZM203.591 241.227H206.409V238.227H203.591V241.227ZM204.909 239.727V255.136H207.909V239.727H204.909ZM204.909 255.136C204.909 256.481 204.595 257.63 203.998 258.626L206.57 260.169C207.473 258.665 207.909 256.973 207.909 255.136H204.909ZM203.996 258.628C203.403 259.621 202.563 260.416 201.433 261.016L202.84 263.666C204.422 262.826 205.68 261.659 206.572 260.167L203.996 258.628ZM201.439 261.013C200.336 261.592 198.993 261.909 197.364 261.909V264.909C199.386 264.909 201.225 264.514 202.834 263.669L201.439 261.013ZM197.364 261.909C195.734 261.909 194.392 261.592 193.288 261.013L191.894 263.669C193.502 264.514 195.341 264.909 197.364 264.909V261.909ZM193.294 261.016C192.163 260.416 191.317 259.619 190.716 258.623L188.148 260.173C189.046 261.661 190.306 262.827 191.888 263.666L193.294 261.016ZM190.721 258.632C190.13 257.635 189.818 256.484 189.818 255.136H186.818C186.818 256.971 187.249 258.66 188.142 260.164L190.721 258.632ZM189.818 255.136V239.727H186.818V255.136H189.818ZM188.318 241.227H191.136V238.227H188.318V241.227ZM189.636 239.727V254.909H192.636V239.727H189.636ZM189.636 254.909C189.636 256.273 189.939 257.544 190.58 258.68L193.193 257.206C192.834 256.57 192.636 255.818 192.636 254.909H189.636ZM190.583 258.685C191.226 259.815 192.144 260.702 193.301 261.338L194.745 258.708C194.053 258.328 193.547 257.828 193.19 257.201L190.583 258.685ZM193.314 261.344C194.507 261.985 195.876 262.273 197.364 262.273V259.273C196.261 259.273 195.402 259.06 194.732 258.701L193.314 261.344ZM197.364 262.273C198.852 262.273 200.22 261.985 201.414 261.344L199.995 258.701C199.325 259.06 198.467 259.273 197.364 259.273V262.273ZM201.422 261.34C202.588 260.705 203.511 259.815 204.149 258.676L201.532 257.21C201.186 257.829 200.685 258.325 199.987 258.705L201.422 261.34ZM204.147 258.68C204.789 257.544 205.091 256.273 205.091 254.909H202.091C202.091 255.818 201.893 256.57 201.534 257.206L204.147 258.68ZM205.091 254.909V239.727H202.091V254.909H205.091ZM212.037 263H210.537V264.5H212.037V263ZM212.037 239.727V238.227H210.537V239.727H212.037ZM224.378 240.716L223.636 242.02L223.646 242.026L224.378 240.716ZM226.969 243.364L225.629 244.038V244.038L226.969 243.364ZM226.969 250.83L225.627 250.159L225.623 250.166L226.969 250.83ZM224.401 253.511L225.142 254.815L225.148 254.812L224.401 253.511ZM214.31 254.5H212.81V256H214.31V254.5ZM214.31 252V250.5H212.81V252H214.31ZM222.866 251.352L222.124 250.049L222.866 251.352ZM224.514 249.602L223.156 248.965L223.154 248.971L224.514 249.602ZM224.514 244.591L223.153 245.222L223.159 245.234L224.514 244.591ZM222.855 242.864L222.128 244.176L222.138 244.181L222.855 242.864ZM214.855 242.227V240.727H213.355V242.227H214.855ZM214.855 263V264.5H216.355V263H214.855ZM213.537 263V239.727H210.537V263H213.537ZM212.037 241.227H219.901V238.227H212.037V241.227ZM219.901 241.227C221.558 241.227 222.772 241.528 223.636 242.02L225.119 239.412C223.666 238.586 221.894 238.227 219.901 238.227V241.227ZM223.646 242.026C224.571 242.542 225.213 243.212 225.629 244.038L228.309 242.689C227.603 241.288 226.518 240.193 225.109 239.406L223.646 242.026ZM225.629 244.038C226.074 244.922 226.31 245.93 226.31 247.091H229.31C229.31 245.509 228.985 244.032 228.309 242.689L225.629 244.038ZM226.31 247.091C226.31 248.251 226.074 249.265 225.627 250.159L228.31 251.5C228.985 250.152 229.31 248.673 229.31 247.091H226.31ZM225.623 250.166C225.211 251.002 224.573 251.682 223.653 252.211L225.148 254.812C226.547 254.007 227.62 252.9 228.314 251.493L225.623 250.166ZM223.659 252.207C222.793 252.7 221.586 253 219.946 253V256C221.927 256 223.69 255.641 225.142 254.815L223.659 252.207ZM219.946 253H214.31V256H219.946V253ZM215.81 254.5V252H212.81V254.5H215.81ZM214.31 253.5H219.855V250.5H214.31V253.5ZM219.855 253.5C221.259 253.5 222.548 253.26 223.609 252.655L222.124 250.049C221.67 250.308 220.951 250.5 219.855 250.5V253.5ZM223.609 252.655C224.616 252.082 225.393 251.273 225.875 250.234L223.154 248.971C222.954 249.401 222.632 249.759 222.124 250.049L223.609 252.655ZM225.872 250.24C226.326 249.272 226.537 248.213 226.537 247.091H223.537C223.537 247.832 223.399 248.447 223.156 248.965L225.872 250.24ZM226.537 247.091C226.537 245.969 226.326 244.911 225.87 243.948L223.159 245.234C223.399 245.74 223.537 246.349 223.537 247.091H226.537ZM225.875 243.96C225.388 242.911 224.597 242.104 223.572 241.546L222.138 244.181C222.643 244.456 222.958 244.802 223.154 245.222L225.875 243.96ZM223.582 241.552C222.517 240.961 221.223 240.727 219.81 240.727V243.727C220.927 243.727 221.663 243.918 222.128 244.175L223.582 241.552ZM219.81 240.727H214.855V243.727H219.81V240.727ZM213.355 242.227V263H216.355V242.227H213.355ZM214.855 261.5H212.037V264.5H214.855V261.5ZM245.077 245.545L243.587 245.722L243.744 247.045H245.077V245.545ZM243.418 242.864L242.595 244.118L243.418 242.864ZM237.145 242.409L236.551 241.032L236.546 241.034L237.145 242.409ZM235.349 243.784L234.144 242.892L234.136 242.902L235.349 243.784ZM235.156 247.375L233.905 248.202L233.913 248.214L233.921 248.227L235.156 247.375ZM236.315 248.477L235.517 249.747L235.524 249.752L235.531 249.756L236.315 248.477ZM237.793 249.193L237.275 250.601L237.284 250.604L237.293 250.608L237.793 249.193ZM239.213 249.636L239.603 248.188L239.595 248.186L239.213 249.636ZM241.577 250.273L241.187 251.721L241.196 251.724L241.577 250.273ZM243.599 250.932L243.07 252.335L243.074 252.337L243.599 250.932ZM245.747 252.08L244.878 253.302L244.886 253.307L244.893 253.313L245.747 252.08ZM247.452 253.92L248.74 253.153L247.452 253.92ZM247.134 260.091L245.875 259.274L245.871 259.281L247.134 260.091ZM244.27 262.511L243.625 261.157L243.622 261.158L244.27 262.511ZM235.384 262.602L234.775 263.973L234.778 263.975L235.384 262.602ZM232.52 260.352L231.301 261.226L231.305 261.232L232.52 260.352ZM231.349 257V255.5H229.738L229.853 257.107L231.349 257ZM234.259 257L235.753 256.871L235.635 255.5H234.259V257ZM235.145 259.182L234.027 260.182L234.034 260.19L234.041 260.197L235.145 259.182ZM237.122 260.455L236.624 261.869L236.632 261.872L236.64 261.875L237.122 260.455ZM242.611 260.341L243.176 261.73L243.187 261.726L242.611 260.341ZM244.645 258.864L245.819 259.797L245.824 259.79L244.645 258.864ZM244.747 254.75L245.867 253.752L244.747 254.75ZM243.043 253.568L242.45 254.946L243.043 253.568ZM240.759 252.773L240.346 254.215L240.357 254.218L240.759 252.773ZM237.895 251.955L237.48 253.396L237.483 253.397L237.895 251.955ZM233.577 249.716L232.565 250.823L233.577 249.716ZM233.043 242.5L231.83 241.617L231.829 241.618L233.043 242.5ZM235.906 240.227L236.521 241.595L236.525 241.594L235.906 240.227ZM243.94 240.216L243.312 241.578L243.32 241.581L243.94 240.216ZM246.713 242.398L245.506 243.288L245.511 243.295L246.713 242.398ZM247.804 245.545V247.045H249.353L249.303 245.497L247.804 245.545ZM246.566 245.369C246.378 243.777 245.581 242.489 244.241 241.61L242.595 244.118C243.194 244.511 243.503 245.011 243.587 245.722L246.566 245.369ZM244.241 241.61C242.978 240.781 241.488 240.409 239.849 240.409V243.409C241.03 243.409 241.918 243.673 242.595 244.118L244.241 241.61ZM239.849 240.409C238.659 240.409 237.548 240.602 236.551 241.032L237.739 243.786C238.287 243.55 238.979 243.409 239.849 243.409V240.409ZM236.546 241.034C235.576 241.456 234.754 242.067 234.144 242.892L236.555 244.677C236.808 244.334 237.183 244.029 237.744 243.784L236.546 241.034ZM234.136 242.902C233.52 243.749 233.213 244.723 233.213 245.773H236.213C236.213 245.337 236.331 244.985 236.563 244.666L234.136 242.902ZM233.213 245.773C233.213 246.64 233.423 247.473 233.905 248.202L236.408 246.548C236.299 246.383 236.213 246.148 236.213 245.773H233.213ZM233.921 248.227C234.345 248.84 234.882 249.348 235.517 249.747L237.114 247.208C236.81 247.016 236.574 246.789 236.391 246.523L233.921 248.227ZM235.531 249.756C236.085 250.096 236.667 250.377 237.275 250.601L238.31 247.785C237.888 247.63 237.485 247.435 237.099 247.198L235.531 249.756ZM237.293 250.608C237.839 250.8 238.352 250.961 238.831 251.087L239.595 248.186C239.21 248.085 238.777 247.95 238.292 247.779L237.293 250.608ZM238.823 251.085L241.187 251.721L241.967 248.824L239.603 248.188L238.823 251.085ZM241.196 251.724C241.74 251.866 242.364 252.069 243.07 252.335L244.129 249.529C243.35 249.234 242.625 248.997 241.958 248.822L241.196 251.724ZM243.074 252.337C243.697 252.57 244.298 252.889 244.878 253.302L246.616 250.857C245.833 250.3 245.002 249.855 244.125 249.527L243.074 252.337ZM244.893 253.313C245.399 253.663 245.821 254.115 246.163 254.688L248.74 253.153C248.188 252.226 247.474 251.451 246.601 250.846L244.893 253.313ZM246.163 254.688C246.441 255.155 246.622 255.794 246.622 256.682H249.622C249.622 255.387 249.356 254.186 248.74 253.153L246.163 254.688ZM246.622 256.682C246.622 257.661 246.37 258.512 245.875 259.274L248.392 260.908C249.215 259.64 249.622 258.217 249.622 256.682H246.622ZM245.871 259.281C245.393 260.026 244.67 260.66 243.625 261.157L244.914 263.866C246.385 263.166 247.571 262.186 248.396 260.901L245.871 259.281ZM243.622 261.158C242.624 261.636 241.339 261.909 239.713 261.909V264.909C241.662 264.909 243.416 264.583 244.918 263.864L243.622 261.158ZM239.713 261.909C238.204 261.909 236.976 261.665 235.989 261.23L234.778 263.975C236.23 264.615 237.889 264.909 239.713 264.909V261.909ZM235.992 261.231C234.993 260.788 234.259 260.196 233.735 259.472L231.305 261.232C232.175 262.433 233.35 263.341 234.775 263.973L235.992 261.231ZM233.739 259.479C233.224 258.759 232.918 257.912 232.846 256.893L229.853 257.107C229.962 258.633 230.437 260.021 231.301 261.226L233.739 259.479ZM231.349 258.5H234.259V255.5H231.349V258.5ZM232.764 257.129C232.864 258.283 233.265 259.331 234.027 260.182L236.263 258.182C235.994 257.881 235.805 257.474 235.753 256.871L232.764 257.129ZM234.041 260.197C234.745 260.962 235.619 261.515 236.624 261.869L237.621 259.04C237.035 258.833 236.59 258.538 236.249 258.166L234.041 260.197ZM236.64 261.875C237.611 262.205 238.639 262.364 239.713 262.364V259.364C238.938 259.364 238.239 259.25 237.605 259.034L236.64 261.875ZM239.713 262.364C240.951 262.364 242.114 262.163 243.176 261.73L242.045 258.952C241.396 259.216 240.626 259.364 239.713 259.364V262.364ZM243.187 261.726C244.241 261.288 245.138 260.653 245.819 259.797L243.471 257.93C243.152 258.331 242.693 258.682 242.035 258.956L243.187 261.726ZM245.824 259.79C246.543 258.876 246.895 257.803 246.895 256.636H243.895C243.895 257.166 243.747 257.578 243.465 257.937L245.824 259.79ZM246.895 256.636C246.895 255.57 246.589 254.562 245.867 253.752L243.627 255.748C243.769 255.907 243.895 256.158 243.895 256.636H246.895ZM245.867 253.752C245.265 253.077 244.505 252.564 243.635 252.19L242.45 254.946C242.989 255.178 243.365 255.454 243.627 255.748L245.867 253.752ZM243.635 252.19C242.862 251.858 242.037 251.571 241.16 251.327L240.357 254.218C241.117 254.429 241.814 254.672 242.45 254.946L243.635 252.19ZM241.171 251.33L238.307 250.512L237.483 253.397L240.346 254.215L241.171 251.33ZM238.309 250.513C236.646 250.035 235.433 249.381 234.589 248.609L232.565 250.823C233.841 251.99 235.507 252.829 237.48 253.396L238.309 250.513ZM234.589 248.609C233.869 247.951 233.486 247.099 233.486 245.909H230.486C230.486 247.855 231.163 249.541 232.565 250.823L234.589 248.609ZM233.486 245.909C233.486 244.894 233.754 244.073 234.256 243.382L231.829 241.618C230.922 242.867 230.486 244.318 230.486 245.909H233.486ZM234.255 243.383C234.8 242.635 235.541 242.036 236.521 241.595L235.291 238.859C233.877 239.494 232.709 240.411 231.83 241.617L234.255 243.383ZM236.525 241.594C237.513 241.147 238.643 240.909 239.94 240.909V237.909C238.268 237.909 236.709 238.217 235.287 238.861L236.525 241.594ZM239.94 240.909C241.26 240.909 242.373 241.145 243.312 241.578L244.568 238.854C243.174 238.211 241.621 237.909 239.94 237.909V240.909ZM243.32 241.581C244.281 242.018 244.993 242.593 245.506 243.288L247.92 241.507C247.07 240.354 245.933 239.474 244.561 238.85L243.32 241.581ZM245.511 243.295C246.013 243.968 246.277 244.72 246.305 245.594L249.303 245.497C249.256 244.023 248.792 242.676 247.915 241.501L245.511 243.295ZM247.804 244.045H245.077V247.045H247.804V244.045ZM265.483 245.545L263.993 245.722L264.15 247.045H265.483V245.545ZM263.824 242.864L263.001 244.118L263.824 242.864ZM257.551 242.409L256.957 241.032L256.952 241.034L257.551 242.409ZM255.756 243.784L254.55 242.892L254.543 242.902L255.756 243.784ZM255.562 247.375L254.311 248.202L254.319 248.214L254.328 248.227L255.562 247.375ZM256.722 248.477L255.923 249.747L255.93 249.752L255.938 249.756L256.722 248.477ZM258.199 249.193L257.681 250.601L257.69 250.604L257.7 250.608L258.199 249.193ZM259.619 249.636L260.009 248.188L260.001 248.186L259.619 249.636ZM261.983 250.273L261.593 251.721L261.602 251.724L261.983 250.273ZM264.006 250.932L263.476 252.335L263.481 252.337L264.006 250.932ZM266.153 252.08L265.284 253.302L265.292 253.307L265.3 253.313L266.153 252.08ZM267.858 253.92L269.146 253.153L267.858 253.92ZM267.54 260.091L266.282 259.274L266.277 259.281L267.54 260.091ZM264.676 262.511L264.032 261.157L264.028 261.158L264.676 262.511ZM255.79 262.602L255.181 263.973L255.185 263.975L255.79 262.602ZM252.926 260.352L251.707 261.226L251.711 261.232L252.926 260.352ZM251.756 257V255.5H250.145L250.259 257.107L251.756 257ZM254.665 257L256.159 256.871L256.041 255.5H254.665V257ZM255.551 259.182L254.433 260.182L254.44 260.19L254.447 260.197L255.551 259.182ZM257.528 260.455L257.03 261.869L257.038 261.872L257.046 261.875L257.528 260.455ZM263.017 260.341L263.583 261.73L263.593 261.726L263.017 260.341ZM265.051 258.864L266.225 259.797L266.231 259.79L265.051 258.864ZM265.153 254.75L266.274 253.752L265.153 254.75ZM263.449 253.568L262.856 254.946L263.449 253.568ZM261.165 252.773L260.753 254.215L260.763 254.218L261.165 252.773ZM258.301 251.955L257.887 253.396L257.889 253.397L258.301 251.955ZM253.983 249.716L252.971 250.823L253.983 249.716ZM253.449 242.5L252.237 241.617L252.235 241.618L253.449 242.5ZM256.312 240.227L256.927 241.595L256.931 241.594L256.312 240.227ZM264.347 240.216L263.719 241.578L263.726 241.581L264.347 240.216ZM267.119 242.398L265.912 243.288L265.917 243.295L267.119 242.398ZM268.21 245.545V247.045H269.759L269.709 245.497L268.21 245.545ZM266.973 245.369C266.784 243.777 265.987 242.489 264.647 241.61L263.001 244.118C263.6 244.511 263.909 245.011 263.993 245.722L266.973 245.369ZM264.647 241.61C263.385 240.781 261.894 240.409 260.256 240.409V243.409C261.436 243.409 262.324 243.673 263.001 244.118L264.647 241.61ZM260.256 240.409C259.066 240.409 257.954 240.602 256.957 241.032L258.145 243.786C258.693 243.55 259.385 243.409 260.256 243.409V240.409ZM256.952 241.034C255.983 241.456 255.16 242.067 254.55 242.892L256.961 244.677C257.215 244.334 257.589 244.029 258.15 243.784L256.952 241.034ZM254.543 242.902C253.926 243.749 253.619 244.723 253.619 245.773H256.619C256.619 245.337 256.737 244.985 256.969 244.666L254.543 242.902ZM253.619 245.773C253.619 246.64 253.829 247.473 254.311 248.202L256.814 246.548C256.705 246.383 256.619 246.148 256.619 245.773H253.619ZM254.328 248.227C254.751 248.84 255.288 249.348 255.923 249.747L257.52 247.208C257.216 247.016 256.98 246.789 256.797 246.523L254.328 248.227ZM255.938 249.756C256.491 250.096 257.073 250.377 257.681 250.601L258.716 247.785C258.294 247.63 257.891 247.435 257.505 247.198L255.938 249.756ZM257.7 250.608C258.245 250.8 258.759 250.961 259.238 251.087L260.001 248.186C259.616 248.085 259.183 247.95 258.698 247.779L257.7 250.608ZM259.229 251.085L261.593 251.721L262.373 248.824L260.009 248.188L259.229 251.085ZM261.602 251.724C262.147 251.866 262.77 252.069 263.476 252.335L264.536 249.529C263.756 249.234 263.032 248.997 262.364 248.822L261.602 251.724ZM263.481 252.337C264.103 252.57 264.704 252.889 265.284 253.302L267.023 250.857C266.239 250.3 265.408 249.855 264.531 249.527L263.481 252.337ZM265.3 253.313C265.805 253.663 266.228 254.115 266.569 254.688L269.146 253.153C268.594 252.226 267.88 251.451 267.007 250.846L265.3 253.313ZM266.569 254.688C266.847 255.155 267.028 255.794 267.028 256.682H270.028C270.028 255.387 269.762 254.186 269.146 253.153L266.569 254.688ZM267.028 256.682C267.028 257.661 266.777 258.512 266.282 259.274L268.798 260.908C269.621 259.64 270.028 258.217 270.028 256.682H267.028ZM266.277 259.281C265.799 260.026 265.076 260.66 264.032 261.157L265.321 263.866C266.791 263.166 267.977 262.186 268.802 260.901L266.277 259.281ZM264.028 261.158C263.03 261.636 261.746 261.909 260.119 261.909V264.909C262.069 264.909 263.822 264.583 265.324 263.864L264.028 261.158ZM260.119 261.909C258.611 261.909 257.383 261.665 256.395 261.23L255.185 263.975C256.636 264.615 258.295 264.909 260.119 264.909V261.909ZM256.398 261.231C255.399 260.788 254.665 260.196 254.141 259.472L251.711 261.232C252.581 262.433 253.756 263.341 255.181 263.973L256.398 261.231ZM254.145 259.479C253.63 258.759 253.325 257.912 253.252 256.893L250.259 257.107C250.369 258.633 250.844 260.021 251.707 261.226L254.145 259.479ZM251.756 258.5H254.665V255.5H251.756V258.5ZM253.17 257.129C253.27 258.283 253.672 259.331 254.433 260.182L256.669 258.182C256.4 257.881 256.211 257.474 256.159 256.871L253.17 257.129ZM254.447 260.197C255.151 260.962 256.025 261.515 257.03 261.869L258.027 259.04C257.441 258.833 256.997 258.538 256.655 258.166L254.447 260.197ZM257.046 261.875C258.018 262.205 259.046 262.364 260.119 262.364V259.364C259.344 259.364 258.645 259.25 258.011 259.034L257.046 261.875ZM260.119 262.364C261.358 262.364 262.52 262.163 263.583 261.73L262.451 258.952C261.802 259.216 261.033 259.364 260.119 259.364V262.364ZM263.593 261.726C264.647 261.288 265.544 260.653 266.225 259.797L263.877 257.93C263.558 258.331 263.099 258.682 262.441 258.956L263.593 261.726ZM266.231 259.79C266.949 258.876 267.301 257.803 267.301 256.636H264.301C264.301 257.166 264.153 257.578 263.872 257.937L266.231 259.79ZM267.301 256.636C267.301 255.57 266.995 254.562 266.274 253.752L264.033 255.748C264.175 255.907 264.301 256.158 264.301 256.636H267.301ZM266.274 253.752C265.672 253.077 264.911 252.564 264.042 252.19L262.856 254.946C263.395 255.178 263.771 255.454 264.033 255.748L266.274 253.752ZM264.042 252.19C263.269 251.858 262.443 251.571 261.566 251.327L260.763 254.218C261.523 254.429 262.22 254.672 262.856 254.946L264.042 252.19ZM261.577 251.33L258.713 250.512L257.889 253.397L260.753 254.215L261.577 251.33ZM258.716 250.513C257.052 250.035 255.84 249.381 254.995 248.609L252.971 250.823C254.247 251.99 255.914 252.829 257.887 253.396L258.716 250.513ZM254.995 248.609C254.276 247.951 253.892 247.099 253.892 245.909H250.892C250.892 247.855 251.569 249.541 252.971 250.823L254.995 248.609ZM253.892 245.909C253.892 244.894 254.16 244.073 254.662 243.382L252.235 241.618C251.328 242.867 250.892 244.318 250.892 245.909H253.892ZM254.661 243.383C255.207 242.635 255.947 242.036 256.927 241.595L255.698 238.859C254.284 239.494 253.115 240.411 252.237 241.617L254.661 243.383ZM256.931 241.594C257.919 241.147 259.049 240.909 260.347 240.909V237.909C258.675 237.909 257.115 238.217 255.694 238.861L256.931 241.594ZM260.347 240.909C261.666 240.909 262.779 241.145 263.719 241.578L264.975 238.854C263.581 238.211 262.027 237.909 260.347 237.909V240.909ZM263.726 241.581C264.687 242.018 265.399 242.593 265.912 243.288L268.326 241.507C267.476 240.354 266.339 239.474 264.967 238.85L263.726 241.581ZM265.917 243.295C266.419 243.968 266.683 244.72 266.711 245.594L269.709 245.497C269.662 244.023 269.198 242.676 268.322 241.501L265.917 243.295ZM268.21 244.045H265.483V247.045H268.21V244.045Z" fill="white"/>
</svg>
